<svg width="189" height="39" viewBox="0 0 189 39" fill="none" xmlns="http://www.w3.org/2000/svg">
<path d="M32.1691 13.9761H25.9451C24.2801 13.9761 22.5781 14.6022 22.5781 19.2612C22.5781 23.9202 24.2781 24.542 25.9451 24.542H32.1691C33.8331 24.542 35.5361 23.9122 35.5361 19.2612C35.5361 14.6102 33.8331 13.9761 32.1691 13.9761ZM47.2692 0.170906H10.8002C8.0786 0.171171 5.46851 1.25232 3.54407 3.17676C1.61963 5.10121 0.538351 7.71154 0.538086 10.4331V28.085C0.538351 30.8065 1.61963 33.4164 3.54407 35.3408C5.46851 37.2653 8.0786 38.3469 10.8002 38.3472H47.3212C50.0428 38.3472 52.6529 37.2658 54.5774 35.3413C56.5019 33.4168 57.5831 30.8066 57.5831 28.085V10.4331C57.5731 7.70589 56.4818 5.09369 54.5487 3.16993C52.6156 1.24617 49.9984 0.16771 47.2711 0.170906H47.2692ZM17.4691 27.0708H15.1091V13.8091H13.3572V11.4492H17.4691V27.0708ZM36.8832 24.415C36.4403 25.1996 35.7848 25.8432 34.9922 26.2715C34.1996 26.6998 33.302 26.8954 32.4031 26.8359H25.7031C24.804 26.8956 23.9063 26.6998 23.1135 26.2715C22.3207 25.8432 21.6651 25.1998 21.2222 24.415C20.5383 22.7817 20.1862 21.0285 20.1862 19.2578C20.1862 17.4871 20.5383 15.7344 21.2222 14.1011C21.666 13.3174 22.322 12.6746 23.1146 12.2471C23.9073 11.8195 24.8045 11.6245 25.7031 11.6841H32.4031C33.3016 11.6247 34.1986 11.82 34.9911 12.2476C35.7836 12.6751 36.4394 13.3176 36.8832 14.1011C37.5657 15.7347 37.917 17.4873 37.917 19.2578C37.917 21.0283 37.5657 22.7814 36.8832 24.415ZM44.3741 27.0708H42.0142V13.8091H40.2611V11.4492H44.3741V27.0708Z" fill="white"/>
<path d="M78.9942 17.9199C74.8532 17.8969 74.8512 17.896 73.7142 17.897C72.4755 17.9211 71.2378 17.8131 70.0222 17.5742C69.1452 17.3172 68.8532 16.99 68.8532 15.564C68.8532 14.434 69.1642 13.9141 70.0412 13.5811C71.8891 13.1382 73.7926 12.9725 75.6892 13.0898C77.0672 13.0324 78.4466 13.1638 79.7891 13.48C80.7121 13.786 80.9451 14.063 80.9451 15.564V16.0151H83.4451V15.7979C83.4211 13.6979 83.1452 12.8701 82.2022 12.1191C81.0822 11.2061 79.3422 10.8672 75.7822 10.8672C74.3892 10.8672 72.2312 10.956 71.0312 11.105C69.7723 11.1135 68.5495 11.5275 67.5441 12.2852C67.1059 12.6997 66.7668 13.2078 66.5519 13.7715C66.3371 14.3352 66.2521 14.9399 66.3032 15.541C66.2288 16.2 66.3126 16.8672 66.5476 17.4873C66.7825 18.1075 67.1619 18.6627 67.6542 19.1069C68.5592 19.8139 69.9812 20.144 72.1282 20.144C79.6802 20.144 79.6802 20.1441 80.4132 20.3911C81.0282 20.6051 81.3852 21.0101 81.3852 22.4531C81.3852 23.6941 80.9532 24.3891 80.0662 24.5771H80.0602C78.4308 24.8416 76.7807 24.9577 75.1302 24.9248C73.2873 25.0249 71.4389 24.9112 69.6221 24.5859C68.9731 24.3339 68.8292 24.1081 68.7822 22.2861V21.7441H66.3671L66.3511 21.9438C66.3281 22.2138 66.3272 22.5669 66.3272 22.6689C66.3272 24.6959 66.6962 25.5828 67.8482 26.3188C68.8542 26.9398 70.2481 27.1299 73.8041 27.1299C78.4821 27.1299 80.7791 26.8992 81.9971 26.3062C83.3151 25.6262 83.9291 24.35 83.9291 22.293C83.9952 21.2971 83.7465 20.3057 83.2182 19.459C82.4632 18.336 81.3172 17.9199 78.9942 17.9199ZM121.027 22.5942C121.027 23.9412 120.954 24.282 120.735 24.626C120.414 25.133 119.902 25.2798 118.45 25.2798C116.925 25.2798 116.175 25.0909 115.779 24.6069C115.479 24.2259 115.479 24.2159 115.43 22.1699V17.6431H122.971V15.7271H115.43V13.0132H113.3V15.7271H110.646V17.6431H113.3V22.7119C113.3 24.4779 113.445 25.1938 113.946 25.9038C114.619 26.8388 115.876 27.2202 118.287 27.2202C119.206 27.2556 120.125 27.1473 121.01 26.8999C121.637 26.7216 122.18 26.3245 122.539 25.7808C123.013 25.0718 123.158 24.3272 123.158 22.5942V21.6938H121.027V22.5942ZM94.2692 15.4438H89.3832C88.6863 15.3999 87.9911 15.5551 87.3791 15.8916C86.7671 16.2281 86.2635 16.7322 85.9272 17.3442C85.4097 18.5858 85.1433 19.9176 85.1433 21.2627C85.1433 22.6078 85.4097 23.9396 85.9272 25.1812C86.2633 25.7934 86.7668 26.2968 87.3789 26.6333C87.9909 26.9698 88.6862 27.1253 89.3832 27.0811H94.2692C94.9662 27.1245 95.661 26.9692 96.2729 26.6328C96.8848 26.2964 97.3885 25.7929 97.7252 25.1812C98.2413 23.9392 98.507 22.6076 98.507 21.2627C98.507 19.9178 98.2413 18.5862 97.7252 17.3442C97.3883 16.7327 96.8846 16.229 96.2728 15.8926C95.6609 15.5562 94.9661 15.4006 94.2692 15.4438ZM94.0961 24.9521H89.5562C88.3922 24.9521 87.3142 24.5052 87.3142 21.2622C87.3142 18.0192 88.3922 17.5698 89.5562 17.5698H94.0961C95.2601 17.5698 96.3372 18.0172 96.3372 21.2622C96.3372 24.5072 95.2602 24.9521 94.1002 24.9521H94.0961ZM102.82 11.9922C101.971 12.7782 101.769 14.0541 101.754 15.7271H99.3332V17.6431H101.753V27.0791H103.883V17.6431H109.329V15.7271H103.943L103.952 15.5771V15.564C103.952 14.264 104.095 13.6899 104.499 13.3569C105.358 12.9245 106.323 12.7508 107.278 12.8569L109.328 12.7769V10.8608L107.153 10.9399C104.8 10.9899 103.584 11.2862 102.82 11.9922ZM172.013 16.4341C171.25 15.7601 170.352 15.5542 168.17 15.5542C166.034 15.5542 165.134 15.663 164.47 16.001C164.05 16.1953 163.678 16.4812 163.382 16.8379V15.7002H161.252V27.0518H163.382V21.7891C163.382 19.7571 163.6 18.799 164.182 18.252C164.855 17.624 166.134 17.498 167.982 17.498C168.837 17.3818 169.706 17.5504 170.455 17.978C170.848 18.313 171.002 18.893 171.002 20.043V21.0371H173.178V19.689C173.23 19.0945 173.153 18.4959 172.952 17.9341C172.751 17.3723 172.43 16.8607 172.013 16.4341ZM140.295 24.9341L137.037 15.7271H134.055L130.855 24.9048L126.738 15.7271H124.355L129.532 27.0791H132.337L135.548 17.979L138.806 27.0791H141.633L146.833 15.7271H144.379L140.295 24.9341ZM186.218 23.4692C186.149 24.1622 186.108 24.29 185.883 24.519L185.874 24.5278C185.374 25.0968 184.453 25.2798 182.074 25.2798C178.929 25.2798 177.786 25.0862 177.181 24.4512C176.658 23.748 176.401 22.8815 176.457 22.0068H188.457V21.7881C188.41 19.1181 188.164 18.1101 187.313 17.1001C186.264 15.9141 184.938 15.5889 181.147 15.5889C178.454 15.5889 177.235 15.7629 176.317 16.2769C174.84 17.0999 174.182 18.6929 174.182 21.4419C174.182 23.7669 174.711 25.3111 175.799 26.1631C176.799 26.9561 178.433 27.2241 182.264 27.2241C184.573 27.2241 186.024 26.975 186.964 26.418C187.453 26.1126 187.848 25.6791 188.107 25.1646C188.366 24.65 188.479 24.0743 188.434 23.5L188.44 23.2788H186.232L186.218 23.4692ZM181.102 17.5249C185.276 17.5249 186.073 18.1398 186.142 20.0898H176.519C176.715 18.1098 177.429 17.5249 181.1 17.5249H181.102ZM153.634 15.5181C153.378 15.5101 153.129 15.5059 152.893 15.5059C150.428 15.5059 148.845 15.9351 147.91 16.8521C147.566 17.2203 147.303 17.6557 147.135 18.1309C146.968 18.606 146.901 19.1104 146.938 19.6128V19.9531H149.024V19.6128C148.991 19.3915 149.004 19.1656 149.063 18.9497C149.122 18.7338 149.225 18.5326 149.366 18.3589C149.849 17.8759 151.09 17.6108 152.866 17.6108C153.092 17.6108 153.33 17.6111 153.573 17.6221C155.824 17.6891 156.949 17.9011 157.335 18.3301C157.674 18.9098 157.812 19.5848 157.729 20.251C157.122 20.251 156.195 20.2451 155.29 20.2451C154.407 20.2451 153.735 20.245 153.348 20.252H153.317C152.977 20.252 152.656 20.2578 152.351 20.2578H152.206C150.172 20.2728 148.829 20.2828 147.933 21.1938C147.641 21.5419 147.42 21.9449 147.285 22.3789C147.15 22.8129 147.102 23.2695 147.144 23.7222V23.8218C147.123 24.4328 147.231 25.0414 147.461 25.6079C147.633 25.9624 147.89 26.2687 148.209 26.499C148.529 26.7293 148.901 26.8761 149.291 26.9268C150.421 27.1105 151.566 27.1819 152.709 27.1392H153.109H153.54C156.297 27.1262 157.775 26.993 158.721 26.271C159.22 25.883 159.555 25.3222 159.659 24.6992C159.767 24.0306 159.809 23.3526 159.784 22.6758V22.6392C159.784 22.2342 159.784 21.7749 159.801 21.2749C159.811 20.9549 159.816 20.6752 159.816 20.4282C159.964 19.1705 159.62 17.9041 158.856 16.894C157.878 15.845 156.266 15.6001 153.634 15.5181ZM157.698 22.6382C157.71 23.1244 157.693 23.611 157.647 24.0952C157.599 24.4522 157.516 24.5522 157.455 24.5952C157.054 24.8156 156.604 24.9308 156.147 24.9302C155.532 24.9952 154.726 25.0248 153.533 25.0298H152.81C151.712 25.1105 150.609 25.0352 149.532 24.8052C149.472 24.7863 149.418 24.7519 149.375 24.7061C149.332 24.6602 149.301 24.6041 149.286 24.543C149.238 24.298 149.22 24.0481 149.231 23.7988V23.7139C149.231 22.8899 149.4 22.6958 149.419 22.6768L149.427 22.6689C149.454 22.6399 149.627 22.4908 150.336 22.4268C150.865 22.3758 151.56 22.3732 152.363 22.3682C152.651 22.3682 152.956 22.3682 153.279 22.3682H153.373C153.763 22.3622 154.408 22.3618 155.092 22.3618C156.059 22.3618 157.068 22.3618 157.7 22.3618C157.7 22.4578 157.7 22.5502 157.7 22.6382H157.698Z" fill="white"/>
</svg>
